<svg xmlns="http://www.w3.org/2000/svg" xmlns:xlink="http://www.w3.org/1999/xlink" width="500" zoomAndPan="magnify" viewBox="0 0 375 374.999991" height="500" preserveAspectRatio="xMidYMid meet" version="1.0"><defs><clipPath id="b52f4ca337"><path d="M 57.628906 25.160156 L 317.128906 25.160156 L 317.128906 349.910156 L 57.628906 349.910156 Z M 57.628906 25.160156 " clip-rule="nonzero"/></clipPath></defs><path fill="#7ed957" d="M 114.410156 138.800781 L 195.570312 138.800781 C 200.050781 138.800781 203.6875 135.164062 203.6875 130.683594 C 203.6875 126.207031 200.050781 122.570312 195.570312 122.570312 L 114.410156 122.570312 C 109.929688 122.570312 106.292969 126.207031 106.292969 130.683594 C 106.292969 135.164062 109.929688 138.800781 114.410156 138.800781 Z M 114.410156 138.800781 " fill-opacity="1" fill-rule="nonzero"/><path fill="#7ed957" d="M 260.5 171.265625 L 114.410156 171.265625 C 109.929688 171.265625 106.292969 174.902344 106.292969 179.382812 C 106.292969 183.863281 109.929688 187.5 114.410156 187.5 L 260.5 187.5 C 264.980469 187.5 268.617188 183.863281 268.617188 179.382812 C 268.617188 174.902344 264.980469 171.265625 260.5 171.265625 Z M 260.5 171.265625 " fill-opacity="1" fill-rule="nonzero"/><path fill="#7ed957" d="M 260.5 219.964844 L 114.410156 219.964844 C 109.929688 219.964844 106.292969 223.601562 106.292969 228.078125 C 106.292969 232.558594 109.929688 236.195312 114.410156 236.195312 L 260.5 236.195312 C 264.980469 236.195312 268.617188 232.558594 268.617188 228.078125 C 268.617188 223.601562 264.980469 219.964844 260.5 219.964844 Z M 260.5 219.964844 " fill-opacity="1" fill-rule="nonzero"/><path fill="#7ed957" d="M 260.5 268.660156 L 114.410156 268.660156 C 109.929688 268.660156 106.292969 272.296875 106.292969 276.777344 C 106.292969 281.257812 109.929688 284.894531 114.410156 284.894531 L 260.5 284.894531 C 264.980469 284.894531 268.617188 281.257812 268.617188 276.777344 C 268.617188 272.296875 264.980469 268.660156 260.5 268.660156 Z M 260.5 268.660156 " fill-opacity="1" fill-rule="nonzero"/><g clip-path="url(#b52f4ca337)"><path fill="#7ed957" d="M 316.679688 95.105469 C 316.273438 94.097656 315.675781 93.222656 314.929688 92.472656 L 250.015625 27.578125 C 249.269531 26.832031 248.375 26.230469 247.382812 25.824219 C 246.410156 25.402344 245.355469 25.175781 244.269531 25.175781 L 65.710938 25.175781 C 61.230469 25.175781 57.59375 28.8125 57.59375 33.289062 L 57.59375 341.707031 C 57.59375 346.1875 61.230469 349.824219 65.710938 349.824219 L 309.199219 349.824219 C 313.679688 349.824219 317.3125 346.1875 317.3125 341.707031 L 317.3125 98.21875 C 317.3125 97.148438 317.085938 96.078125 316.679688 95.105469 Z M 252.382812 52.882812 L 289.605469 90.105469 L 252.382812 90.105469 Z M 73.828125 333.589844 L 73.828125 41.40625 L 236.152344 41.40625 L 236.152344 98.21875 C 236.152344 102.699219 239.789062 106.335938 244.269531 106.335938 L 301.082031 106.335938 L 301.082031 333.589844 Z M 73.828125 333.589844 " fill-opacity="1" fill-rule="nonzero"/></g></svg>